<svg width="16" height="16" viewBox="0 0 16 16" fill="none" xmlns="http://www.w3.org/2000/svg">
<path d="M5.87565 8L11.0191 2.85633C11.1175 2.75811 11.166 2.64 11.1646 2.502C11.1634 2.36389 11.1136 2.24572 11.0153 2.1475C10.9171 2.04917 10.7989 2 10.6608 2C10.5228 2 10.4046 2.04917 10.3063 2.1475L5.21531 7.24233C5.10765 7.35 5.02903 7.47006 4.97948 7.6025C4.92992 7.73506 4.90515 7.86756 4.90515 8C4.90515 8.13244 4.92992 8.26495 4.97948 8.3975C5.02903 8.52994 5.10765 8.65 5.21531 8.75767L10.3103 13.8525C10.4085 13.9508 10.526 13.9993 10.6628 13.998C10.7996 13.9968 10.9171 13.947 11.0153 13.8487C11.1136 13.7504 11.1628 13.6323 11.1628 13.4942C11.1628 13.3562 11.1136 13.238 11.0153 13.1397L5.87565 8Z" fill="#4E0601"/>
</svg>
