<svg width="41" height="40" viewBox="0 0 41 40" fill="none" xmlns="http://www.w3.org/2000/svg">
<path d="M19.6667 20.8333V26.6667C19.6667 26.9028 19.7467 27.1007 19.9067 27.2604C20.0667 27.4201 20.2649 27.5 20.5013 27.5C20.7376 27.5 20.9354 27.4201 21.0946 27.2604C21.2537 27.1007 21.3333 26.9028 21.3333 26.6667V20.8333H27.1667C27.4028 20.8333 27.6007 20.7533 27.7604 20.5933C27.9201 20.4333 28 20.2351 28 19.9988C28 19.7624 27.9201 19.5646 27.7604 19.4054C27.6007 19.2463 27.4028 19.1667 27.1667 19.1667H21.3333V13.3333C21.3333 13.0972 21.2533 12.8993 21.0933 12.7396C20.9333 12.5799 20.7351 12.5 20.4988 12.5C20.2624 12.5 20.0646 12.5799 19.9054 12.7396C19.7463 12.8993 19.6667 13.0972 19.6667 13.3333V19.1667H13.8333C13.5972 19.1667 13.3993 19.2467 13.2396 19.4067C13.0799 19.5667 13 19.7649 13 20.0013C13 20.2376 13.0799 20.4354 13.2396 20.5946C13.3993 20.7537 13.5972 20.8333 13.8333 20.8333H19.6667ZM20.5054 35C18.4313 35 16.4811 34.6064 14.655 33.8192C12.8292 33.0319 11.2408 31.9636 9.89 30.6142C8.53917 29.2647 7.46986 27.6778 6.68208 25.8533C5.89403 24.0292 5.5 22.0799 5.5 20.0054C5.5 17.9313 5.89361 15.9811 6.68083 14.155C7.46806 12.3292 8.53639 10.7408 9.88583 9.39C11.2353 8.03917 12.8222 6.96986 14.6467 6.18208C16.4708 5.39403 18.4201 5 20.4946 5C22.5688 5 24.5189 5.39361 26.345 6.18083C28.1708 6.96806 29.7592 8.03639 31.11 9.38583C32.4608 10.7353 33.5301 12.3222 34.3179 14.1467C35.106 15.9708 35.5 17.9201 35.5 19.9946C35.5 22.0688 35.1064 24.0189 34.3192 25.845C33.5319 27.6708 32.4636 29.2592 31.1142 30.61C29.7647 31.9608 28.1778 33.0301 26.3533 33.8179C24.5292 34.606 22.5799 35 20.5054 35Z" fill="#7C7C7C"/>
</svg>
