<svg width="24" height="25" viewBox="0 0 24 25" fill="none" xmlns="http://www.w3.org/2000/svg">
<path d="M12 13.5538L6.92701 18.627C6.78851 18.7653 6.61443 18.8362 6.40476 18.8395C6.19526 18.8427 6.01801 18.7718 5.87301 18.627C5.72818 18.482 5.65576 18.3063 5.65576 18.1C5.65576 17.8937 5.72818 17.718 5.87301 17.573L10.9463 12.5L5.87301 7.42701C5.73468 7.28851 5.66385 7.11443 5.66051 6.90476C5.65735 6.69526 5.72818 6.51801 5.87301 6.37301C6.01801 6.22818 6.19368 6.15576 6.40001 6.15576C6.60635 6.15576 6.78201 6.22818 6.92701 6.37301L12 11.4463L17.073 6.37301C17.2115 6.23468 17.3856 6.16385 17.5953 6.16051C17.8048 6.15735 17.982 6.22818 18.127 6.37301C18.2718 6.51801 18.3443 6.69368 18.3443 6.90001C18.3443 7.10635 18.2718 7.28201 18.127 7.42701L13.0538 12.5L18.127 17.573C18.2653 17.7115 18.3362 17.8856 18.3395 18.0953C18.3427 18.3048 18.2718 18.482 18.127 18.627C17.982 18.7718 17.8063 18.8443 17.6 18.8443C17.3937 18.8443 17.218 18.7718 17.073 18.627L12 13.5538Z" fill="#5F6368"/>
</svg>
