<svg width="24" height="24" viewBox="0 0 24 24" fill="none" xmlns="http://www.w3.org/2000/svg">
<path d="M3.5 20.5V17.1155L16.6905 3.93075C16.8417 3.79342 17.0086 3.68733 17.1913 3.6125C17.3741 3.5375 17.5658 3.5 17.7663 3.5C17.9668 3.5 18.1609 3.53558 18.3488 3.60675C18.5368 3.67792 18.7032 3.79108 18.848 3.94625L20.0693 5.18275C20.2244 5.32758 20.335 5.49425 20.401 5.68275C20.467 5.87125 20.5 6.05975 20.5 6.24825C20.5 6.44942 20.4657 6.64133 20.397 6.824C20.3283 7.00683 20.2191 7.17383 20.0693 7.325L6.8845 20.5H3.5ZM17.552 7.69425L19 6.25575L17.7443 5L16.3057 6.448L17.552 7.69425Z" fill="#F72717"/>
</svg>
