<svg width="173" height="154" viewBox="0 0 173 154" fill="none" xmlns="http://www.w3.org/2000/svg">
<path d="M37.4741 126.97C36.2028 126.97 35.061 126.659 34.0485 126.038C33.036 125.417 32.2491 124.598 31.6878 123.58C31.1028 122.57 30.781 121.476 30.7222 120.299C30.6635 119.121 30.981 117.955 31.6747 116.8L95.8803 5.89C96.5753 4.735 97.4441 3.88126 98.4866 3.32876C99.5303 2.77626 100.629 2.5 101.783 2.5C102.937 2.5 104.035 2.77626 105.079 3.32876C106.122 3.88126 106.99 4.735 107.685 5.89L171.891 116.8C172.585 117.955 172.902 119.121 172.843 120.299C172.785 121.476 172.463 122.57 171.878 123.58C171.317 124.598 170.53 125.417 169.517 126.038C168.505 126.659 167.363 126.97 166.092 126.97H37.4741ZM101.783 106.778C103.499 106.778 104.938 106.197 106.099 105.036C107.26 103.875 107.841 102.436 107.841 100.72C107.841 99.0038 107.26 97.565 106.099 96.4038C104.938 95.2425 103.499 94.6619 101.783 94.6619C100.067 94.6619 98.6278 95.2425 97.4666 96.4038C96.3053 97.565 95.7247 99.0038 95.7247 100.72C95.7247 102.436 96.3053 103.875 97.4666 105.036C98.6278 106.197 100.067 106.778 101.783 106.778ZM101.785 87.1619C103.38 87.1619 104.715 86.6231 105.792 85.5456C106.869 84.4669 107.408 83.1306 107.408 81.5369V55.2869C107.408 53.6931 106.868 52.3575 105.79 51.28C104.711 50.2013 103.375 49.6619 101.781 49.6619C100.186 49.6619 98.8503 50.2013 97.7741 51.28C96.6966 52.3575 96.1578 53.6931 96.1578 55.2869V81.5369C96.1578 83.1306 96.6972 84.4669 97.776 85.5456C98.8547 86.6231 100.191 87.1619 101.785 87.1619Z" fill="url(#paint0_linear_31_400)"/>
<g filter="url(#filter0_bd_31_400)">
<path d="M16.6654 141.442C15.4375 141.771 14.2541 141.766 13.1153 141.428C11.9765 141.09 11.0044 140.503 10.1989 139.665C9.37247 138.841 8.77847 137.868 8.41697 136.745C8.05546 135.623 8.06029 134.415 8.43147 133.119L41.7437 9.37091C42.1161 8.07539 42.7343 7.02588 43.5983 6.22239C44.4635 5.41858 45.4533 4.86735 46.5677 4.56874C47.6821 4.27013 48.8149 4.2526 49.9661 4.51613C51.1161 4.77998 52.1762 5.37979 53.1465 6.31555L143.87 96.8288C144.839 97.7648 145.448 98.8092 145.696 99.9618C145.944 101.114 145.916 102.254 145.612 103.381C145.333 104.509 144.785 105.504 143.968 106.366C143.151 107.229 142.128 107.824 140.9 108.153L16.6654 141.442ZM73.5569 105.294C75.2146 104.849 76.4541 103.916 77.2752 102.494C78.0963 101.072 78.2848 99.5318 77.8406 97.874C77.3964 96.2163 76.4632 94.9768 75.041 94.1557C73.6187 93.3345 72.0787 93.1461 70.421 93.5903C68.7632 94.0345 67.5237 94.9677 66.7026 96.3899C65.8815 97.8122 65.693 99.3522 66.1372 101.01C66.5814 102.668 67.5146 103.907 68.9369 104.728C70.3591 105.549 71.8991 105.738 73.5569 105.294ZM68.4816 86.3454C70.0223 85.9325 71.1729 85.0665 71.9336 83.7471C72.6952 82.4262 72.8698 80.9961 72.4573 79.4566L65.6633 54.1011C65.2508 52.5616 64.3841 51.4111 63.0632 50.6496C61.742 49.8868 60.3117 49.7116 58.7723 50.1241C57.2316 50.5369 56.0811 51.4036 55.3207 52.7242C54.5588 54.0438 54.3841 55.4734 54.7966 57.0128L61.5906 82.3684C62.0031 83.9078 62.87 85.0589 64.1911 85.8217C65.512 86.5833 66.9422 86.7578 68.4816 86.3454Z" fill="url(#paint1_linear_31_400)" fill-opacity="0.8" shape-rendering="crispEdges"/>
<path d="M10.2566 139.609L10.2554 139.608C9.43806 138.793 8.85076 137.831 8.49311 136.721C8.13714 135.616 8.14093 134.424 8.50837 133.141L8.50838 133.141L8.50872 133.14L41.8206 9.39301C41.8207 9.39274 41.8208 9.39247 41.8208 9.3922C42.1898 8.10899 42.801 7.07305 43.6527 6.28097C44.5086 5.48584 45.4869 4.94117 46.5884 4.64602C47.6899 4.35086 48.8095 4.33342 49.9483 4.59411C51.0819 4.85423 52.1292 5.44578 53.0904 6.37261C53.0906 6.37278 53.0908 6.37296 53.0909 6.37314L143.813 96.8854L143.814 96.8863C144.774 97.813 145.373 98.8437 145.617 99.9786C145.863 101.119 145.835 102.246 145.535 103.36L145.534 103.362C145.259 104.476 144.718 105.459 143.91 106.311C143.104 107.162 142.094 107.75 140.88 108.076L16.6447 141.365C15.43 141.69 14.2617 141.685 13.1381 141.352C12.0123 141.017 11.0523 140.437 10.2566 139.609ZM64.1511 85.891L64.1911 85.8217L64.1512 85.891C65.4913 86.6637 66.9434 86.8403 68.5023 86.4226C70.0624 86.0046 71.2311 85.1258 72.003 83.7871C72.7757 82.4469 72.9523 80.9948 72.5346 79.4359L65.7406 54.0804C65.3228 52.5215 64.4434 51.353 63.1032 50.5803C61.7628 49.8064 60.3105 49.6291 58.7516 50.0468C57.1915 50.4649 56.023 51.3443 55.2515 52.6842C54.4784 54.0231 54.3016 55.4746 54.7193 57.0335L61.5133 82.3891C61.9311 83.948 62.8107 85.1171 64.1511 85.891ZM73.5776 105.371C75.2548 104.922 76.5122 103.976 77.3445 102.534C78.1768 101.093 78.3673 99.5305 77.9179 97.8533C77.4685 96.1761 76.5225 94.9187 75.081 94.0864C73.6394 93.2541 72.0775 93.0636 70.4002 93.513C68.723 93.9624 67.4656 94.9084 66.6333 96.3499C65.8011 97.7914 65.6105 99.3534 66.0599 101.031C66.5093 102.708 67.4553 103.965 68.8969 104.798C70.3384 105.63 71.9003 105.82 73.5776 105.371Z" stroke="white" stroke-width="0.16" shape-rendering="crispEdges"/>
</g>
<defs>
<filter id="filter0_bd_31_400" x="0.149414" y="-3.66919" width="153.713" height="157.354" filterUnits="userSpaceOnUse" color-interpolation-filters="sRGB">
<feFlood flood-opacity="0" result="BackgroundImageFix"/>
<feGaussianBlur in="BackgroundImageFix" stdDeviation="4"/>
<feComposite in2="SourceAlpha" operator="in" result="effect1_backgroundBlur_31_400"/>
<feColorMatrix in="SourceAlpha" type="matrix" values="0 0 0 0 0 0 0 0 0 0 0 0 0 0 0 0 0 0 127 0" result="hardAlpha"/>
<feOffset dy="4"/>
<feGaussianBlur stdDeviation="4"/>
<feComposite in2="hardAlpha" operator="out"/>
<feColorMatrix type="matrix" values="0 0 0 0 0.14902 0 0 0 0 0.14902 0 0 0 0 0.14902 0 0 0 0.16 0"/>
<feBlend mode="normal" in2="effect1_backgroundBlur_31_400" result="effect2_dropShadow_31_400"/>
<feBlend mode="normal" in="SourceGraphic" in2="effect2_dropShadow_31_400" result="shape"/>
</filter>
<linearGradient id="paint0_linear_31_400" x1="33.7538" y1="2.5" x2="182.204" y2="19.6406" gradientUnits="userSpaceOnUse">
<stop stop-color="#F72717"/>
<stop offset="1" stop-color="#91170E"/>
</linearGradient>
<linearGradient id="paint1_linear_31_400" x1="146" y1="73.2201" x2="2.12833" y2="99.7291" gradientUnits="userSpaceOnUse">
<stop stop-color="#F72717" stop-opacity="0.16"/>
<stop offset="1" stop-color="#E7E7E7"/>
</linearGradient>
</defs>
</svg>
