<svg width="16" height="17" viewBox="0 0 16 17" fill="none" xmlns="http://www.w3.org/2000/svg">
<path fill-rule="evenodd" clip-rule="evenodd" d="M7.91963 2.28514C7.74628 2.34577 7.52228 2.54668 7.43798 2.71715C7.40205 2.78983 7.37233 2.92422 7.37191 3.01614C7.37149 3.10796 7.35139 3.20774 7.32723 3.23784C7.3031 3.26794 7.13316 3.33837 6.94962 3.39432C5.58076 3.81154 4.72804 4.93286 4.43958 6.69491C4.40839 6.88545 4.36817 7.44855 4.35008 7.94848C4.30684 9.14248 4.23792 9.63996 4.03489 10.2237C3.84567 10.7678 3.60537 11.1264 3.05101 11.692C2.66656 12.0843 2.61633 12.1664 2.61362 12.4066C2.61095 12.6424 2.7536 12.8761 2.96281 12.9788L3.10332 13.0478H8.23429H13.3653L13.5077 12.9592C13.6856 12.8486 13.7927 12.6888 13.8216 12.491C13.858 12.2414 13.7732 12.0956 13.3098 11.6104C12.3788 10.6357 12.1568 9.96295 12.0797 7.88247C12.0555 7.2287 12.0252 6.86023 11.9712 6.56513C11.7837 5.54002 11.4014 4.74862 10.8159 4.17393C10.4164 3.78177 10.0339 3.56056 9.44357 3.38019L9.10988 3.27824L9.06769 3.0174C9.01528 2.69332 8.89167 2.49242 8.66297 2.35957C8.46285 2.24329 8.13355 2.21032 7.91963 2.28514ZM6.53808 13.9307C6.62537 14.9687 7.46647 15.5868 8.55078 15.4097C9.31435 15.2849 9.79877 14.7454 9.88493 13.9235L9.90928 13.6914H8.21363H6.51796L6.53808 13.9307Z" fill="#4E0601"/>
</svg>
