<svg width="24" height="24" viewBox="0 0 24 24" fill="none" xmlns="http://www.w3.org/2000/svg">
<path d="M12 11.3845C11.1692 11.3845 10.4615 11.0923 9.877 10.5078C9.29233 9.92309 9 9.21534 9 8.38451C9 7.55384 9.29233 6.84617 9.877 6.26151C10.4615 5.67684 11.1692 5.38451 12 5.38451C12.8308 5.38451 13.5385 5.67684 14.123 6.26151C14.7077 6.84617 15 7.55384 15 8.38451C15 9.21534 14.7077 9.92309 14.123 10.5078C13.5385 11.0923 12.8308 11.3845 12 11.3845ZM5 17.577V16.9693C5 16.5564 5.12017 16.1702 5.3605 15.8105C5.601 15.451 5.92442 15.1718 6.33075 14.973C7.27442 14.5205 8.21867 14.1811 9.1635 13.9548C10.1083 13.7286 11.0538 13.6155 12 13.6155C12.9462 13.6155 13.8917 13.7286 14.8365 13.9548C15.7813 14.1811 16.7256 14.5205 17.6693 14.973C18.0756 15.1718 18.399 15.451 18.6395 15.8105C18.8798 16.1702 19 16.5564 19 16.9693V17.577C19 17.8705 18.9003 18.1169 18.701 18.3163C18.5017 18.5158 18.2552 18.6155 17.9615 18.6155H6.0385C5.74483 18.6155 5.49833 18.5158 5.299 18.3163C5.09967 18.1169 5 17.8705 5 17.577Z" fill="white"/>
</svg>
