<svg width="80" height="80" viewBox="0 0 80 80" fill="none" xmlns="http://www.w3.org/2000/svg">
<path d="M40 54.8717C40.5811 54.8717 41.0683 54.675 41.4617 54.2817C41.855 53.8889 42.0517 53.4019 42.0517 52.8208C42.0517 52.2392 41.855 51.7519 41.4617 51.3592C41.0683 50.9658 40.5811 50.7692 40 50.7692C39.4189 50.7692 38.9317 50.9658 38.5383 51.3592C38.145 51.7519 37.9483 52.2392 37.9483 52.8208C37.9483 53.4019 38.145 53.8889 38.5383 54.2817C38.9317 54.675 39.4189 54.8717 40 54.8717ZM40.0025 43.8458C40.4753 43.8458 40.8708 43.6861 41.1892 43.3667C41.5075 43.0472 41.6667 42.6514 41.6667 42.1792V25.5125C41.6667 25.0403 41.5067 24.6444 41.1867 24.325C40.8667 24.0056 40.4703 23.8458 39.9975 23.8458C39.5247 23.8458 39.1292 24.0056 38.8108 24.325C38.4925 24.6444 38.3333 25.0403 38.3333 25.5125V42.1792C38.3333 42.6514 38.4933 43.0472 38.8133 43.3667C39.1333 43.6861 39.5297 43.8458 40.0025 43.8458ZM40.0108 70C35.8625 70 31.9622 69.2128 28.31 67.6383C24.6583 66.0639 21.4817 63.9272 18.78 61.2283C16.0783 58.5294 13.9397 55.3556 12.3642 51.7067C10.7881 48.0583 10 44.1597 10 40.0108C10 35.8625 10.7872 31.9622 12.3617 28.31C13.9361 24.6583 16.0728 21.4817 18.7717 18.78C21.4706 16.0783 24.6444 13.9397 28.2933 12.3642C31.9417 10.7881 35.8403 10 39.9892 10C44.1375 10 48.0378 10.7872 51.69 12.3617C55.3417 13.9361 58.5183 16.0728 61.22 18.7717C63.9217 21.4706 66.0603 24.6444 67.6358 28.2933C69.2119 31.9417 70 35.8403 70 39.9892C70 44.1375 69.2128 48.0378 67.6383 51.69C66.0639 55.3417 63.9272 58.5183 61.2283 61.22C58.5294 63.9217 55.3556 66.0603 51.7067 67.6358C48.0583 69.2119 44.1597 70 40.0108 70Z" fill="#FF695D"/>
</svg>
