<svg width="24" height="24" viewBox="0 0 24 24" fill="none" xmlns="http://www.w3.org/2000/svg">
<path d="M4.12575 20C3.97008 20 3.83233 19.963 3.7125 19.889C3.5925 19.815 3.49925 19.7174 3.43275 19.5963C3.36008 19.4769 3.32008 19.3478 3.31275 19.2088C3.30558 19.0696 3.3445 18.9293 3.4295 18.788L11.3013 5.212C11.3863 5.07067 11.4888 4.96792 11.6088 4.90376C11.7286 4.83976 11.859 4.80775 12 4.80775C12.141 4.80775 12.2714 4.83976 12.3913 4.90376C12.5113 4.96792 12.6138 5.07067 12.6988 5.212L20.5705 18.788C20.6555 18.9293 20.6944 19.0696 20.6873 19.2088C20.6799 19.3478 20.6399 19.4769 20.5673 19.5963C20.5008 19.7174 20.4075 19.815 20.2875 19.889C20.1677 19.963 20.0299 20 19.8742 20H4.12575ZM12 17.6155C12.1743 17.6155 12.3205 17.5565 12.4385 17.4385C12.5565 17.3205 12.6155 17.1743 12.6155 17C12.6155 16.8257 12.5565 16.6795 12.4385 16.5615C12.3205 16.4435 12.1743 16.3845 12 16.3845C11.8257 16.3845 11.6795 16.4435 11.5615 16.5615C11.4435 16.6795 11.3845 16.8257 11.3845 17C11.3845 17.1743 11.4435 17.3205 11.5615 17.4385C11.6795 17.5565 11.8257 17.6155 12 17.6155ZM12.0008 15.3845C12.1426 15.3845 12.2613 15.3366 12.3568 15.2408C12.4523 15.1449 12.5 15.0262 12.5 14.8845V10.8845C12.5 10.7428 12.452 10.6241 12.356 10.5283C12.26 10.4324 12.1411 10.3845 11.9993 10.3845C11.8574 10.3845 11.7388 10.4324 11.6433 10.5283C11.5478 10.6241 11.5 10.7428 11.5 10.8845V14.8845C11.5 15.0262 11.548 15.1449 11.644 15.2408C11.74 15.3366 11.8589 15.3845 12.0008 15.3845Z" fill="#FFC107"/>
</svg>
